<?xml version="1.0" standalone="no"?>
<!DOCTYPE svg PUBLIC "-//W3C//DTD SVG 20010904//EN"
 "http://www.w3.org/TR/2001/REC-SVG-20010904/DTD/svg10.dtd">
<svg version="1.0" xmlns="http://www.w3.org/2000/svg"
 width="980.000000pt" height="980.000000pt" viewBox="0 0 980.000000 980.000000"
 preserveAspectRatio="xMidYMid meet">
<metadata>
Created by potrace 1.11, written by Peter Selinger 2001-2013
</metadata>
<g transform="translate(0.000000,980.000000) scale(0.100000,-0.100000)"
fill="#000000" stroke="none">
<path d="M6050 9249 c-331 -27 -726 -169 -1025 -367 -386 -256 -660 -585 -870
-1043 -134 -292 -155 -401 -162 -844 -8 -466 5 -572 98 -829 51 -138 159 -364
227 -474 166 -267 434 -541 707 -724 177 -118 498 -259 730 -319 88 -23 99
-24 535 -24 427 0 449 1 550 23 281 62 698 272 957 483 445 362 752 932 823
1528 25 213 9 552 -36 756 -99 446 -317 845 -633 1164 -493 495 -1164 732
-1901 670z m369 -484 c136 -36 226 -111 287 -240 48 -100 60 -169 44 -256 -27
-153 -121 -279 -259 -347 -73 -36 -77 -37 -190 -37 -110 0 -120 2 -184 32
-138 66 -241 201 -267 351 -28 166 48 330 202 435 106 74 240 96 367 62z
m-1234 -696 c250 -46 412 -323 335 -572 -102 -331 -517 -436 -752 -189 -165
173 -182 419 -40 594 116 145 271 201 457 167z m2440 -3 c130 -34 244 -125
297 -235 29 -59 33 -77 36 -176 3 -93 1 -120 -18 -174 -79 -235 -315 -361
-543 -291 -134 41 -230 130 -299 275 -30 64 -33 78 -33 165 0 113 22 177 91
269 107 142 302 212 469 167z m-1217 -906 c94 -41 152 -135 152 -247 0 -89
-52 -164 -150 -214 -62 -32 -167 -33 -226 -2 -154 82 -182 285 -56 417 76 80
167 94 280 46z m-1177 -504 c79 -28 168 -85 202 -129 96 -127 130 -291 87
-430 -54 -175 -189 -290 -372 -318 -170 -27 -320 36 -424 179 -183 249 -72
603 220 704 76 26 204 24 287 -6z m2390 11 c195 -60 313 -187 341 -370 62
-405 -389 -676 -719 -433 -211 155 -242 467 -65 666 46 52 130 105 205 131 63
21 177 24 238 6z m-1217 -702 c141 -37 249 -125 308 -252 56 -119 51 -278 -14
-407 -130 -258 -516 -313 -715 -103 -62 65 -108 154 -129 247 -20 85 -8 169
35 264 87 192 315 303 515 251z"/>
<path d="M1615 8334 c-129 -13 -214 -30 -330 -69 -566 -186 -1019 -643 -1214
-1223 -61 -182 -66 -227 -66 -567 0 -345 4 -376 66 -569 90 -277 241 -526 448
-740 259 -266 555 -439 893 -521 210 -51 679 -56 878 -10 265 62 600 236 815
422 151 131 317 340 423 533 208 382 273 853 176 1289 -108 485 -418 924 -837
1183 -196 122 -469 234 -627 258 -74 11 -547 22 -625 14z m383 -394 c76 -36
159 -116 198 -191 26 -48 29 -64 29 -149 0 -84 -3 -102 -28 -152 -37 -76 -104
-143 -175 -176 -49 -23 -70 -27 -147 -27 -82 0 -97 3 -157 33 -157 77 -244
251 -203 405 43 164 193 287 350 287 57 0 82 -6 133 -30z m-1062 -541 c123
-22 230 -105 282 -217 23 -49 27 -70 27 -152 0 -89 -2 -99 -34 -158 -116 -214
-389 -262 -566 -101 -223 205 -115 569 187 628 24 5 43 9 44 10 0 1 27 -4 60
-10z m2019 -16 c101 -35 178 -105 224 -202 22 -47 26 -70 26 -146 0 -76 -4
-99 -26 -146 -52 -109 -148 -184 -272 -209 -141 -29 -307 53 -379 187 -97 180
-27 403 155 493 102 50 177 56 272 23z m-1009 -719 c50 -24 100 -88 114 -144
10 -40 9 -58 -4 -102 -54 -184 -270 -214 -360 -49 -64 119 -6 267 121 308 43
14 80 10 129 -13z m-913 -422 c176 -78 265 -309 188 -485 -28 -64 -107 -139
-189 -179 -58 -28 -77 -33 -143 -33 -67 0 -83 4 -151 38 -96 47 -170 124 -193
199 -20 67 -19 183 1 246 32 100 128 193 233 227 66 21 192 15 254 -13z m1959
0 c136 -60 230 -225 214 -374 -11 -112 -59 -188 -155 -252 -130 -87 -230 -97
-351 -36 -146 74 -213 176 -213 325 0 165 82 282 241 346 63 26 196 21 264 -9z
m-998 -562 c218 -82 309 -366 172 -538 -83 -103 -188 -162 -291 -163 -83 -1
-150 22 -223 75 -70 52 -116 120 -138 206 -14 55 -15 75 -5 130 45 241 264
372 485 290z"/>
<path d="M3675 5158 c-335 -364 -651 -576 -1070 -717 -275 -92 -398 -106 -840
-98 -240 5 -307 9 -386 26 -241 52 -591 201 -861 368 -47 29 -89 53 -93 53 -5
0 -5 -870 -1 -1932 l8 -1933 51 -85 c71 -116 142 -183 262 -247 l99 -53 3330
0 3331 0 101 59 c168 99 255 213 276 358 13 96 23 2709 13 3371 -6 375 -10
452 -21 452 -8 0 -71 -32 -141 -71 -362 -203 -717 -318 -1123 -365 -178 -20
-537 -15 -700 11 -401 63 -754 189 -1085 388 -199 120 -339 228 -550 426
l-140 131 -165 0 -165 -1 -130 -141z m150 -1334 c390 -189 1755 -876 1755
-883 0 -3 -89 -52 -198 -108 -108 -57 -390 -204 -627 -329 -609 -319 -1120
-582 -1141 -586 -14 -2 -20 6 -26 37 -5 22 -13 461 -18 975 -6 514 -13 954
-16 978 -3 23 -2 42 2 42 4 0 125 -57 269 -126z"/>
<path d="M9205 4535 c-313 -161 -672 -345 -797 -409 l-228 -117 0 -1077 0
-1077 428 -225 c494 -259 1164 -600 1181 -600 8 0 11 502 11 1900 0 1514 -3
1900 -12 1899 -7 -1 -269 -133 -583 -294z"/>
</g>
</svg>
